<svg width="25" height="25" viewBox="0 0 25 25" fill="none" xmlns="http://www.w3.org/2000/svg">
<mask id="path-1-inside-1_106_23" fill="white">
<path fill-rule="evenodd" clip-rule="evenodd" d="M6.81818 0C3.0526 0 0 3.0526 0 6.81818V17.803C0 21.5686 3.0526 24.6212 6.81818 24.6212H18.1818C21.9474 24.6212 25 21.5686 25 17.803V6.81818C25 3.05261 21.9474 0 18.1818 0H6.81818ZM2.27273 6.81818C2.27273 4.30779 4.30779 2.27273 6.81818 2.27273H18.1818C20.6922 2.27273 22.7273 4.3078 22.7273 6.81818V17.803C22.7273 20.3134 20.6922 22.3485 18.1818 22.3485H6.81818C4.30779 22.3485 2.27273 20.3134 2.27273 17.803V6.81818ZM8.14395 6.06062C7.41175 6.06062 6.81819 6.65418 6.81819 7.38638V17.2349C6.81819 17.9671 7.41175 18.5606 8.14395 18.5606C8.87615 18.5606 9.46971 17.9671 9.46971 17.2349V7.38638C9.46971 6.65418 8.87615 6.06062 8.14395 6.06062ZM15.5303 7.38638C15.5303 6.65418 16.1239 6.06062 16.8561 6.06062C17.5883 6.06062 18.1818 6.65418 18.1818 7.38638V17.2349C18.1818 17.9671 17.5883 18.5606 16.8561 18.5606C16.1239 18.5606 15.5303 17.9671 15.5303 17.2349V7.38638ZM19.5076 7.95456C18.9846 7.95456 18.5606 8.37854 18.5606 8.90153V15.3409C18.5606 15.8639 18.9846 16.2879 19.5076 16.2879C20.0306 16.2879 20.4545 15.8639 20.4545 15.3409V8.90153C20.4545 8.37854 20.0306 7.95456 19.5076 7.95456ZM4.5455 8.90153C4.5455 8.37854 4.96948 7.95456 5.49247 7.95456C6.01547 7.95456 6.43944 8.37854 6.43944 8.90153V15.3409C6.43944 15.8639 6.01547 16.2879 5.49247 16.2879C4.96948 16.2879 4.5455 15.8639 4.5455 15.3409V8.90153ZM21.591 9.84851C21.1726 9.84851 20.8334 10.1877 20.8334 10.6061V13.6364C20.8334 14.0548 21.1726 14.394 21.591 14.394C22.0094 14.394 22.3485 14.0548 22.3485 13.6364V10.6061C22.3485 10.1877 22.0094 9.84851 21.591 9.84851ZM2.65156 10.6061C2.65156 10.1877 2.99074 9.84851 3.40914 9.84851C3.82753 9.84851 4.16671 10.1877 4.16671 10.6061V13.6364C4.16671 14.0548 3.82753 14.394 3.40914 14.394C2.99074 14.394 2.65156 14.0548 2.65156 13.6364V10.6061ZM10.8485 10.6061C10.2962 10.6061 9.84848 11.0538 9.84848 11.6061V12.6364C9.84848 13.1887 10.2962 13.6364 10.8485 13.6364H14.1515C14.7038 13.6364 15.1515 13.1887 15.1515 12.6364V11.6061C15.1515 11.0538 14.7038 10.6061 14.1515 10.6061H10.8485Z"/>
</mask>
<path fill-rule="evenodd" clip-rule="evenodd" d="M6.81818 0C3.0526 0 0 3.0526 0 6.81818V17.803C0 21.5686 3.0526 24.6212 6.81818 24.6212H18.1818C21.9474 24.6212 25 21.5686 25 17.803V6.81818C25 3.05261 21.9474 0 18.1818 0H6.81818ZM2.27273 6.81818C2.27273 4.30779 4.30779 2.27273 6.81818 2.27273H18.1818C20.6922 2.27273 22.7273 4.3078 22.7273 6.81818V17.803C22.7273 20.3134 20.6922 22.3485 18.1818 22.3485H6.81818C4.30779 22.3485 2.27273 20.3134 2.27273 17.803V6.81818ZM8.14395 6.06062C7.41175 6.06062 6.81819 6.65418 6.81819 7.38638V17.2349C6.81819 17.9671 7.41175 18.5606 8.14395 18.5606C8.87615 18.5606 9.46971 17.9671 9.46971 17.2349V7.38638C9.46971 6.65418 8.87615 6.06062 8.14395 6.06062ZM15.5303 7.38638C15.5303 6.65418 16.1239 6.06062 16.8561 6.06062C17.5883 6.06062 18.1818 6.65418 18.1818 7.38638V17.2349C18.1818 17.9671 17.5883 18.5606 16.8561 18.5606C16.1239 18.5606 15.5303 17.9671 15.5303 17.2349V7.38638ZM19.5076 7.95456C18.9846 7.95456 18.5606 8.37854 18.5606 8.90153V15.3409C18.5606 15.8639 18.9846 16.2879 19.5076 16.2879C20.0306 16.2879 20.4545 15.8639 20.4545 15.3409V8.90153C20.4545 8.37854 20.0306 7.95456 19.5076 7.95456ZM4.5455 8.90153C4.5455 8.37854 4.96948 7.95456 5.49247 7.95456C6.01547 7.95456 6.43944 8.37854 6.43944 8.90153V15.3409C6.43944 15.8639 6.01547 16.2879 5.49247 16.2879C4.96948 16.2879 4.5455 15.8639 4.5455 15.3409V8.90153ZM21.591 9.84851C21.1726 9.84851 20.8334 10.1877 20.8334 10.6061V13.6364C20.8334 14.0548 21.1726 14.394 21.591 14.394C22.0094 14.394 22.3485 14.0548 22.3485 13.6364V10.6061C22.3485 10.1877 22.0094 9.84851 21.591 9.84851ZM2.65156 10.6061C2.65156 10.1877 2.99074 9.84851 3.40914 9.84851C3.82753 9.84851 4.16671 10.1877 4.16671 10.6061V13.6364C4.16671 14.0548 3.82753 14.394 3.40914 14.394C2.99074 14.394 2.65156 14.0548 2.65156 13.6364V10.6061ZM10.8485 10.6061C10.2962 10.6061 9.84848 11.0538 9.84848 11.6061V12.6364C9.84848 13.1887 10.2962 13.6364 10.8485 13.6364H14.1515C14.7038 13.6364 15.1515 13.1887 15.1515 12.6364V11.6061C15.1515 11.0538 14.7038 10.6061 14.1515 10.6061H10.8485Z" fill="#7C3AED"/>
<path d="M0.378788 6.81818C0.378788 3.2618 3.2618 0.378788 6.81818 0.378788V-0.378788C2.84341 -0.378788 -0.378788 2.8434 -0.378788 6.81818H0.378788ZM0.378788 17.803V6.81818H-0.378788V17.803H0.378788ZM6.81818 24.2424C3.2618 24.2424 0.378788 21.3594 0.378788 17.803H-0.378788C-0.378788 21.7778 2.8434 25 6.81818 25V24.2424ZM18.1818 24.2424H6.81818V25H18.1818V24.2424ZM24.6212 17.803C24.6212 21.3594 21.7382 24.2424 18.1818 24.2424V25C22.1566 25 25.3788 21.7778 25.3788 17.803H24.6212ZM24.6212 6.81818V17.803H25.3788V6.81818H24.6212ZM18.1818 0.378788C21.7382 0.378788 24.6212 3.2618 24.6212 6.81818H25.3788C25.3788 2.84341 22.1566 -0.378788 18.1818 -0.378788V0.378788ZM6.81818 0.378788H18.1818V-0.378788H6.81818V0.378788ZM6.81818 1.89394C4.0986 1.89394 1.89394 4.09859 1.89394 6.81818H2.65152C2.65152 4.51699 4.51699 2.65152 6.81818 2.65152V1.89394ZM18.1818 1.89394H6.81818V2.65152H18.1818V1.89394ZM23.1061 6.81818C23.1061 4.0986 20.9014 1.89394 18.1818 1.89394V2.65152C20.483 2.65152 22.3485 4.51699 22.3485 6.81818H23.1061ZM23.1061 17.803V6.81818H22.3485V17.803H23.1061ZM18.1818 22.7273C20.9014 22.7273 23.1061 20.5226 23.1061 17.803H22.3485C22.3485 20.1042 20.483 21.9697 18.1818 21.9697V22.7273ZM6.81818 22.7273H18.1818V21.9697H6.81818V22.7273ZM1.89394 17.803C1.89394 20.5226 4.09859 22.7273 6.81818 22.7273V21.9697C4.51699 21.9697 2.65152 20.1042 2.65152 17.803H1.89394ZM1.89394 6.81818V17.803H2.65152V6.81818H1.89394ZM7.19698 7.38638C7.19698 6.86338 7.62095 6.43941 8.14395 6.43941V5.68183C7.20256 5.68183 6.4394 6.44498 6.4394 7.38638H7.19698ZM7.19698 17.2349V7.38638H6.4394V17.2349H7.19698ZM8.14395 18.1818C7.62095 18.1818 7.19698 17.7579 7.19698 17.2349H6.4394C6.4394 18.1763 7.20256 18.9394 8.14395 18.9394V18.1818ZM9.09092 17.2349C9.09092 17.7579 8.66695 18.1818 8.14395 18.1818V18.9394C9.08534 18.9394 9.8485 18.1763 9.8485 17.2349H9.09092ZM9.09092 7.38638V17.2349H9.8485V7.38638H9.09092ZM8.14395 6.43941C8.66695 6.43941 9.09092 6.86338 9.09092 7.38638H9.8485C9.8485 6.44498 9.08534 5.68183 8.14395 5.68183V6.43941ZM16.8561 5.68183C15.9147 5.68183 15.1515 6.44498 15.1515 7.38638H15.9091C15.9091 6.86338 16.3331 6.43941 16.8561 6.43941V5.68183ZM18.5606 7.38638C18.5606 6.44498 17.7975 5.68183 16.8561 5.68183V6.43941C17.3791 6.43941 17.803 6.86338 17.803 7.38638H18.5606ZM18.5606 17.2349V7.38638H17.803V17.2349H18.5606ZM16.8561 18.9394C17.7975 18.9394 18.5606 18.1763 18.5606 17.2349H17.803C17.803 17.7579 17.3791 18.1818 16.8561 18.1818V18.9394ZM15.1515 17.2349C15.1515 18.1763 15.9147 18.9394 16.8561 18.9394V18.1818C16.3331 18.1818 15.9091 17.7579 15.9091 17.2349H15.1515ZM15.1515 7.38638V17.2349H15.9091V7.38638H15.1515ZM18.9394 8.90153C18.9394 8.58774 19.1938 8.33335 19.5076 8.33335V7.57578C18.7754 7.57578 18.1818 8.16934 18.1818 8.90153H18.9394ZM18.9394 15.3409V8.90153H18.1818V15.3409H18.9394ZM19.5076 15.9091C19.1938 15.9091 18.9394 15.6547 18.9394 15.3409H18.1818C18.1818 16.0731 18.7754 16.6667 19.5076 16.6667V15.9091ZM20.0757 15.3409C20.0757 15.6547 19.8214 15.9091 19.5076 15.9091V16.6667C20.2398 16.6667 20.8333 16.0731 20.8333 15.3409H20.0757ZM20.0757 8.90153V15.3409H20.8333V8.90153H20.0757ZM19.5076 8.33335C19.8214 8.33335 20.0757 8.58774 20.0757 8.90153H20.8333C20.8333 8.16934 20.2398 7.57578 19.5076 7.57578V8.33335ZM5.49247 7.57578C4.76028 7.57578 4.16672 8.16934 4.16672 8.90153H4.92429C4.92429 8.58773 5.17868 8.33335 5.49247 8.33335V7.57578ZM6.81823 8.90153C6.81823 8.16934 6.22467 7.57578 5.49247 7.57578V8.33335C5.80627 8.33335 6.06066 8.58774 6.06066 8.90153H6.81823ZM6.81823 15.3409V8.90153H6.06066V15.3409H6.81823ZM5.49247 16.6667C6.22467 16.6667 6.81823 16.0731 6.81823 15.3409H6.06066C6.06066 15.6547 5.80627 15.9091 5.49247 15.9091V16.6667ZM4.16672 15.3409C4.16672 16.0731 4.76028 16.6667 5.49247 16.6667V15.9091C5.17868 15.9091 4.92429 15.6547 4.92429 15.3409H4.16672ZM4.16672 8.90153V15.3409H4.92429V8.90153H4.16672ZM21.2122 10.6061C21.2122 10.3969 21.3818 10.2273 21.591 10.2273V9.46972C20.9634 9.46972 20.4546 9.97849 20.4546 10.6061H21.2122ZM21.2122 13.6364V10.6061H20.4546V13.6364H21.2122ZM21.591 14.0152C21.3818 14.0152 21.2122 13.8456 21.2122 13.6364H20.4546C20.4546 14.264 20.9634 14.7727 21.591 14.7727V14.0152ZM21.9698 13.6364C21.9698 13.8456 21.8002 14.0152 21.591 14.0152V14.7727C22.2186 14.7727 22.7273 14.264 22.7273 13.6364H21.9698ZM21.9698 10.6061V13.6364H22.7273V10.6061H21.9698ZM21.591 10.2273C21.8002 10.2273 21.9698 10.3969 21.9698 10.6061H22.7273C22.7273 9.97849 22.2186 9.46972 21.591 9.46972V10.2273ZM3.40914 9.46972C2.78154 9.46972 2.27277 9.97849 2.27277 10.6061H3.03035C3.03035 10.3969 3.19994 10.2273 3.40914 10.2273V9.46972ZM4.5455 10.6061C4.5455 9.97849 4.03673 9.46972 3.40914 9.46972V10.2273C3.61834 10.2273 3.78793 10.3969 3.78793 10.6061H4.5455ZM4.5455 13.6364V10.6061H3.78793V13.6364H4.5455ZM3.40914 14.7727C4.03673 14.7727 4.5455 14.264 4.5455 13.6364H3.78793C3.78793 13.8456 3.61834 14.0152 3.40914 14.0152V14.7727ZM2.27277 13.6364C2.27277 14.264 2.78154 14.7727 3.40914 14.7727V14.0152C3.19994 14.0152 3.03035 13.8456 3.03035 13.6364H2.27277ZM2.27277 10.6061V13.6364H3.03035V10.6061H2.27277ZM10.2273 11.6061C10.2273 11.263 10.5054 10.9849 10.8485 10.9849V10.2273C10.087 10.2273 9.46969 10.8446 9.46969 11.6061H10.2273ZM10.2273 12.6364V11.6061H9.46969V12.6364H10.2273ZM10.8485 13.2576C10.5054 13.2576 10.2273 12.9795 10.2273 12.6364H9.46969C9.46969 13.3979 10.087 14.0152 10.8485 14.0152V13.2576ZM14.1515 13.2576H10.8485V14.0152H14.1515V13.2576ZM14.7727 12.6364C14.7727 12.9795 14.4946 13.2576 14.1515 13.2576V14.0152C14.913 14.0152 15.5303 13.3979 15.5303 12.6364H14.7727ZM14.7727 11.6061V12.6364H15.5303V11.6061H14.7727ZM14.1515 10.9849C14.4946 10.9849 14.7727 11.263 14.7727 11.6061H15.5303C15.5303 10.8446 14.913 10.2273 14.1515 10.2273V10.9849ZM10.8485 10.9849H14.1515V10.2273H10.8485V10.9849Z" fill="#7C3AED" mask="url(#path-1-inside-1_106_23)"/>
</svg>
