<svg width="120" height="27" viewBox="0 0 120 27" fill="none" xmlns="http://www.w3.org/2000/svg">
<path d="M41.766 13.52C42.498 13.676 43.086 14.042 43.53 14.618C43.974 15.182 44.196 15.83 44.196 16.562C44.196 17.618 43.824 18.458 43.08 19.082C42.348 19.694 41.322 20 40.002 20H34.116V7.364H39.804C41.088 7.364 42.09 7.658 42.81 8.246C43.542 8.834 43.908 9.632 43.908 10.64C43.908 11.384 43.71 12.002 43.314 12.494C42.93 12.986 42.414 13.328 41.766 13.52ZM37.194 12.476H39.21C39.714 12.476 40.098 12.368 40.362 12.152C40.638 11.924 40.776 11.594 40.776 11.162C40.776 10.73 40.638 10.4 40.362 10.172C40.098 9.944 39.714 9.83 39.21 9.83H37.194V12.476ZM39.462 17.516C39.978 17.516 40.374 17.402 40.65 17.174C40.938 16.934 41.082 16.592 41.082 16.148C41.082 15.704 40.932 15.356 40.632 15.104C40.344 14.852 39.942 14.726 39.426 14.726H37.194V17.516H39.462ZM50.5532 20.144C49.5692 20.144 48.6812 19.934 47.8892 19.514C47.1092 19.094 46.4912 18.494 46.0352 17.714C45.5912 16.934 45.3692 16.022 45.3692 14.978C45.3692 13.946 45.5972 13.04 46.0532 12.26C46.5092 11.468 47.1332 10.862 47.9252 10.442C48.7172 10.022 49.6052 9.812 50.5892 9.812C51.5732 9.812 52.4612 10.022 53.2532 10.442C54.0452 10.862 54.6692 11.468 55.1252 12.26C55.5812 13.04 55.8092 13.946 55.8092 14.978C55.8092 16.01 55.5752 16.922 55.1072 17.714C54.6512 18.494 54.0212 19.094 53.2172 19.514C52.4252 19.934 51.5372 20.144 50.5532 20.144ZM50.5532 17.48C51.1412 17.48 51.6392 17.264 52.0472 16.832C52.4672 16.4 52.6772 15.782 52.6772 14.978C52.6772 14.174 52.4732 13.556 52.0652 13.124C51.6692 12.692 51.1772 12.476 50.5892 12.476C49.9892 12.476 49.4912 12.692 49.0952 13.124C48.6992 13.544 48.5012 14.162 48.5012 14.978C48.5012 15.782 48.6932 16.4 49.0772 16.832C49.4732 17.264 49.9652 17.48 50.5532 17.48ZM62.0142 20.144C61.0302 20.144 60.1422 19.934 59.3502 19.514C58.5702 19.094 57.9522 18.494 57.4962 17.714C57.0522 16.934 56.8302 16.022 56.8302 14.978C56.8302 13.946 57.0582 13.04 57.5142 12.26C57.9702 11.468 58.5942 10.862 59.3862 10.442C60.1782 10.022 61.0662 9.812 62.0502 9.812C63.0342 9.812 63.9222 10.022 64.7142 10.442C65.5062 10.862 66.1302 11.468 66.5862 12.26C67.0422 13.04 67.2702 13.946 67.2702 14.978C67.2702 16.01 67.0362 16.922 66.5682 17.714C66.1122 18.494 65.4822 19.094 64.6782 19.514C63.8862 19.934 62.9982 20.144 62.0142 20.144ZM62.0142 17.48C62.6022 17.48 63.1002 17.264 63.5082 16.832C63.9282 16.4 64.1382 15.782 64.1382 14.978C64.1382 14.174 63.9342 13.556 63.5262 13.124C63.1302 12.692 62.6382 12.476 62.0502 12.476C61.4502 12.476 60.9522 12.692 60.5562 13.124C60.1602 13.544 59.9622 14.162 59.9622 14.978C59.9622 15.782 60.1542 16.4 60.5382 16.832C60.9342 17.264 61.4262 17.48 62.0142 17.48ZM72.9891 20.144C72.1131 20.144 71.3331 19.994 70.6491 19.694C69.9651 19.394 69.4251 18.986 69.0291 18.47C68.6331 17.942 68.4111 17.354 68.3631 16.706H71.4051C71.4411 17.054 71.6031 17.336 71.8911 17.552C72.1791 17.768 72.5331 17.876 72.9531 17.876C73.3371 17.876 73.6311 17.804 73.8351 17.66C74.0511 17.504 74.1591 17.306 74.1591 17.066C74.1591 16.778 74.0091 16.568 73.7091 16.436C73.4091 16.292 72.9231 16.136 72.2511 15.968C71.5311 15.8 70.9311 15.626 70.4511 15.446C69.9711 15.254 69.5571 14.96 69.2091 14.564C68.8611 14.156 68.6871 13.61 68.6871 12.926C68.6871 12.35 68.8431 11.828 69.1551 11.36C69.4791 10.88 69.9471 10.502 70.5591 10.226C71.1831 9.95 71.9211 9.812 72.7731 9.812C74.0331 9.812 75.0231 10.124 75.7431 10.748C76.4751 11.372 76.8951 12.2 77.0031 13.232H74.1591C74.1111 12.884 73.9551 12.608 73.6911 12.404C73.4391 12.2 73.1031 12.098 72.6831 12.098C72.3231 12.098 72.0471 12.17 71.8551 12.314C71.6631 12.446 71.5671 12.632 71.5671 12.872C71.5671 13.16 71.7171 13.376 72.0171 13.52C72.3291 13.664 72.8091 13.808 73.4571 13.952C74.2011 14.144 74.8071 14.336 75.2751 14.528C75.7431 14.708 76.1511 15.008 76.4991 15.428C76.8591 15.836 77.0451 16.388 77.0571 17.084C77.0571 17.672 76.8891 18.2 76.5531 18.668C76.2291 19.124 75.7551 19.484 75.1311 19.748C74.5191 20.012 73.8051 20.144 72.9891 20.144ZM84.5382 17.39V20H82.9722C81.8562 20 80.9862 19.73 80.3622 19.19C79.7382 18.638 79.4262 17.744 79.4262 16.508V12.512H78.2022V9.956H79.4262V7.508H82.5042V9.956H84.5202V12.512H82.5042V16.544C82.5042 16.844 82.5762 17.06 82.7202 17.192C82.8642 17.324 83.1042 17.39 83.4402 17.39H84.5382ZM87.6927 20.144C87.1527 20.144 86.7087 19.988 86.3607 19.676C86.0247 19.352 85.8567 18.956 85.8567 18.488C85.8567 18.008 86.0247 17.606 86.3607 17.282C86.7087 16.958 87.1527 16.796 87.6927 16.796C88.2207 16.796 88.6527 16.958 88.9887 17.282C89.3367 17.606 89.5107 18.008 89.5107 18.488C89.5107 18.956 89.3367 19.352 88.9887 19.676C88.6527 19.988 88.2207 20.144 87.6927 20.144ZM92.8808 8.912C92.3408 8.912 91.8968 8.756 91.5488 8.444C91.2128 8.12 91.0448 7.724 91.0448 7.256C91.0448 6.776 91.2128 6.38 91.5488 6.068C91.8968 5.744 92.3408 5.582 92.8808 5.582C93.4088 5.582 93.8408 5.744 94.1768 6.068C94.5248 6.38 94.6988 6.776 94.6988 7.256C94.6988 7.724 94.5248 8.12 94.1768 8.444C93.8408 8.756 93.4088 8.912 92.8808 8.912ZM94.4108 9.956V20H91.3328V9.956H94.4108ZM102.761 9.848C103.937 9.848 104.873 10.232 105.569 11C106.277 11.756 106.631 12.8 106.631 14.132V20H103.571V14.546C103.571 13.874 103.397 13.352 103.049 12.98C102.701 12.608 102.233 12.422 101.645 12.422C101.057 12.422 100.589 12.608 100.241 12.98C99.8934 13.352 99.7194 13.874 99.7194 14.546V20H96.6414V9.956H99.7194V11.288C100.031 10.844 100.451 10.496 100.979 10.244C101.507 9.98 102.101 9.848 102.761 9.848ZM112.586 9.812C113.294 9.812 113.912 9.956 114.44 10.244C114.98 10.532 115.394 10.91 115.682 11.378V9.956H118.76V19.982C118.76 20.906 118.574 21.74 118.202 22.484C117.842 23.24 117.284 23.84 116.528 24.284C115.784 24.728 114.854 24.95 113.738 24.95C112.25 24.95 111.044 24.596 110.12 23.888C109.196 23.192 108.668 22.244 108.536 21.044H111.578C111.674 21.428 111.902 21.728 112.262 21.944C112.622 22.172 113.066 22.286 113.594 22.286C114.23 22.286 114.734 22.1 115.106 21.728C115.49 21.368 115.682 20.786 115.682 19.982V18.56C115.382 19.028 114.968 19.412 114.44 19.712C113.912 20 113.294 20.144 112.586 20.144C111.758 20.144 111.008 19.934 110.336 19.514C109.664 19.082 109.13 18.476 108.734 17.696C108.35 16.904 108.158 15.992 108.158 14.96C108.158 13.928 108.35 13.022 108.734 12.242C109.13 11.462 109.664 10.862 110.336 10.442C111.008 10.022 111.758 9.812 112.586 9.812ZM115.682 14.978C115.682 14.21 115.466 13.604 115.034 13.16C114.614 12.716 114.098 12.494 113.486 12.494C112.874 12.494 112.352 12.716 111.92 13.16C111.5 13.592 111.29 14.192 111.29 14.96C111.29 15.728 111.5 16.34 111.92 16.796C112.352 17.24 112.874 17.462 113.486 17.462C114.098 17.462 114.614 17.24 115.034 16.796C115.466 16.352 115.682 15.746 115.682 14.978Z" fill="#334155"/>
<mask id="path-2-inside-1_106_36" fill="white">
<path fill-rule="evenodd" clip-rule="evenodd" d="M6.81818 1C3.0526 1 0 4.0526 0 7.81818V18.803C0 22.5686 3.0526 25.6212 6.81818 25.6212H18.1818C21.9474 25.6212 25 22.5686 25 18.803V7.81818C25 4.05261 21.9474 1 18.1818 1H6.81818ZM2.27273 7.81818C2.27273 5.30779 4.30779 3.27273 6.81818 3.27273H18.1818C20.6922 3.27273 22.7273 5.3078 22.7273 7.81818V18.803C22.7273 21.3134 20.6922 23.3485 18.1818 23.3485H6.81818C4.30779 23.3485 2.27273 21.3134 2.27273 18.803V7.81818ZM8.14395 7.06062C7.41175 7.06062 6.81819 7.65418 6.81819 8.38638V18.2349C6.81819 18.9671 7.41175 19.5606 8.14395 19.5606C8.87615 19.5606 9.46971 18.9671 9.46971 18.2349V8.38638C9.46971 7.65418 8.87615 7.06062 8.14395 7.06062ZM15.5303 8.38638C15.5303 7.65418 16.1239 7.06062 16.8561 7.06062C17.5883 7.06062 18.1818 7.65418 18.1818 8.38638V18.2349C18.1818 18.9671 17.5883 19.5606 16.8561 19.5606C16.1239 19.5606 15.5303 18.9671 15.5303 18.2349V8.38638ZM19.5076 8.95456C18.9846 8.95456 18.5606 9.37854 18.5606 9.90153V16.3409C18.5606 16.8639 18.9846 17.2879 19.5076 17.2879C20.0306 17.2879 20.4545 16.8639 20.4545 16.3409V9.90153C20.4545 9.37854 20.0306 8.95456 19.5076 8.95456ZM4.5455 9.90153C4.5455 9.37854 4.96948 8.95456 5.49247 8.95456C6.01547 8.95456 6.43944 9.37854 6.43944 9.90153V16.3409C6.43944 16.8639 6.01547 17.2879 5.49247 17.2879C4.96948 17.2879 4.5455 16.8639 4.5455 16.3409V9.90153ZM21.591 10.8485C21.1726 10.8485 20.8334 11.1877 20.8334 11.6061V14.6364C20.8334 15.0548 21.1726 15.394 21.591 15.394C22.0094 15.394 22.3485 15.0548 22.3485 14.6364V11.6061C22.3485 11.1877 22.0094 10.8485 21.591 10.8485ZM2.65156 11.6061C2.65156 11.1877 2.99074 10.8485 3.40914 10.8485C3.82753 10.8485 4.16671 11.1877 4.16671 11.6061V14.6364C4.16671 15.0548 3.82753 15.394 3.40914 15.394C2.99074 15.394 2.65156 15.0548 2.65156 14.6364V11.6061ZM10.8485 11.6061C10.2962 11.6061 9.84848 12.0538 9.84848 12.6061V13.6364C9.84848 14.1887 10.2962 14.6364 10.8485 14.6364H14.1515C14.7038 14.6364 15.1515 14.1887 15.1515 13.6364V12.6061C15.1515 12.0538 14.7038 11.6061 14.1515 11.6061H10.8485Z"/>
</mask>
<path fill-rule="evenodd" clip-rule="evenodd" d="M6.81818 1C3.0526 1 0 4.0526 0 7.81818V18.803C0 22.5686 3.0526 25.6212 6.81818 25.6212H18.1818C21.9474 25.6212 25 22.5686 25 18.803V7.81818C25 4.05261 21.9474 1 18.1818 1H6.81818ZM2.27273 7.81818C2.27273 5.30779 4.30779 3.27273 6.81818 3.27273H18.1818C20.6922 3.27273 22.7273 5.3078 22.7273 7.81818V18.803C22.7273 21.3134 20.6922 23.3485 18.1818 23.3485H6.81818C4.30779 23.3485 2.27273 21.3134 2.27273 18.803V7.81818ZM8.14395 7.06062C7.41175 7.06062 6.81819 7.65418 6.81819 8.38638V18.2349C6.81819 18.9671 7.41175 19.5606 8.14395 19.5606C8.87615 19.5606 9.46971 18.9671 9.46971 18.2349V8.38638C9.46971 7.65418 8.87615 7.06062 8.14395 7.06062ZM15.5303 8.38638C15.5303 7.65418 16.1239 7.06062 16.8561 7.06062C17.5883 7.06062 18.1818 7.65418 18.1818 8.38638V18.2349C18.1818 18.9671 17.5883 19.5606 16.8561 19.5606C16.1239 19.5606 15.5303 18.9671 15.5303 18.2349V8.38638ZM19.5076 8.95456C18.9846 8.95456 18.5606 9.37854 18.5606 9.90153V16.3409C18.5606 16.8639 18.9846 17.2879 19.5076 17.2879C20.0306 17.2879 20.4545 16.8639 20.4545 16.3409V9.90153C20.4545 9.37854 20.0306 8.95456 19.5076 8.95456ZM4.5455 9.90153C4.5455 9.37854 4.96948 8.95456 5.49247 8.95456C6.01547 8.95456 6.43944 9.37854 6.43944 9.90153V16.3409C6.43944 16.8639 6.01547 17.2879 5.49247 17.2879C4.96948 17.2879 4.5455 16.8639 4.5455 16.3409V9.90153ZM21.591 10.8485C21.1726 10.8485 20.8334 11.1877 20.8334 11.6061V14.6364C20.8334 15.0548 21.1726 15.394 21.591 15.394C22.0094 15.394 22.3485 15.0548 22.3485 14.6364V11.6061C22.3485 11.1877 22.0094 10.8485 21.591 10.8485ZM2.65156 11.6061C2.65156 11.1877 2.99074 10.8485 3.40914 10.8485C3.82753 10.8485 4.16671 11.1877 4.16671 11.6061V14.6364C4.16671 15.0548 3.82753 15.394 3.40914 15.394C2.99074 15.394 2.65156 15.0548 2.65156 14.6364V11.6061ZM10.8485 11.6061C10.2962 11.6061 9.84848 12.0538 9.84848 12.6061V13.6364C9.84848 14.1887 10.2962 14.6364 10.8485 14.6364H14.1515C14.7038 14.6364 15.1515 14.1887 15.1515 13.6364V12.6061C15.1515 12.0538 14.7038 11.6061 14.1515 11.6061H10.8485Z" fill="#7C3AED"/>
<path d="M0.378788 7.81818C0.378788 4.2618 3.2618 1.37879 6.81818 1.37879V0.621212C2.84341 0.621212 -0.378788 3.8434 -0.378788 7.81818H0.378788ZM0.378788 18.803V7.81818H-0.378788V18.803H0.378788ZM6.81818 25.2424C3.2618 25.2424 0.378788 22.3594 0.378788 18.803H-0.378788C-0.378788 22.7778 2.8434 26 6.81818 26V25.2424ZM18.1818 25.2424H6.81818V26H18.1818V25.2424ZM24.6212 18.803C24.6212 22.3594 21.7382 25.2424 18.1818 25.2424V26C22.1566 26 25.3788 22.7778 25.3788 18.803H24.6212ZM24.6212 7.81818V18.803H25.3788V7.81818H24.6212ZM18.1818 1.37879C21.7382 1.37879 24.6212 4.2618 24.6212 7.81818H25.3788C25.3788 3.84341 22.1566 0.621212 18.1818 0.621212V1.37879ZM6.81818 1.37879H18.1818V0.621212H6.81818V1.37879ZM6.81818 2.89394C4.0986 2.89394 1.89394 5.09859 1.89394 7.81818H2.65152C2.65152 5.51699 4.51699 3.65152 6.81818 3.65152V2.89394ZM18.1818 2.89394H6.81818V3.65152H18.1818V2.89394ZM23.1061 7.81818C23.1061 5.0986 20.9014 2.89394 18.1818 2.89394V3.65152C20.483 3.65152 22.3485 5.51699 22.3485 7.81818H23.1061ZM23.1061 18.803V7.81818H22.3485V18.803H23.1061ZM18.1818 23.7273C20.9014 23.7273 23.1061 21.5226 23.1061 18.803H22.3485C22.3485 21.1042 20.483 22.9697 18.1818 22.9697V23.7273ZM6.81818 23.7273H18.1818V22.9697H6.81818V23.7273ZM1.89394 18.803C1.89394 21.5226 4.09859 23.7273 6.81818 23.7273V22.9697C4.51699 22.9697 2.65152 21.1042 2.65152 18.803H1.89394ZM1.89394 7.81818V18.803H2.65152V7.81818H1.89394ZM7.19698 8.38638C7.19698 7.86338 7.62095 7.43941 8.14395 7.43941V6.68183C7.20256 6.68183 6.4394 7.44498 6.4394 8.38638H7.19698ZM7.19698 18.2349V8.38638H6.4394V18.2349H7.19698ZM8.14395 19.1818C7.62095 19.1818 7.19698 18.7579 7.19698 18.2349H6.4394C6.4394 19.1763 7.20256 19.9394 8.14395 19.9394V19.1818ZM9.09092 18.2349C9.09092 18.7579 8.66695 19.1818 8.14395 19.1818V19.9394C9.08534 19.9394 9.8485 19.1763 9.8485 18.2349H9.09092ZM9.09092 8.38638V18.2349H9.8485V8.38638H9.09092ZM8.14395 7.43941C8.66695 7.43941 9.09092 7.86338 9.09092 8.38638H9.8485C9.8485 7.44498 9.08534 6.68183 8.14395 6.68183V7.43941ZM16.8561 6.68183C15.9147 6.68183 15.1515 7.44498 15.1515 8.38638H15.9091C15.9091 7.86338 16.3331 7.43941 16.8561 7.43941V6.68183ZM18.5606 8.38638C18.5606 7.44498 17.7975 6.68183 16.8561 6.68183V7.43941C17.3791 7.43941 17.803 7.86338 17.803 8.38638H18.5606ZM18.5606 18.2349V8.38638H17.803V18.2349H18.5606ZM16.8561 19.9394C17.7975 19.9394 18.5606 19.1763 18.5606 18.2349H17.803C17.803 18.7579 17.3791 19.1818 16.8561 19.1818V19.9394ZM15.1515 18.2349C15.1515 19.1763 15.9147 19.9394 16.8561 19.9394V19.1818C16.3331 19.1818 15.9091 18.7579 15.9091 18.2349H15.1515ZM15.1515 8.38638V18.2349H15.9091V8.38638H15.1515ZM18.9394 9.90153C18.9394 9.58774 19.1938 9.33335 19.5076 9.33335V8.57578C18.7754 8.57578 18.1818 9.16934 18.1818 9.90153H18.9394ZM18.9394 16.3409V9.90153H18.1818V16.3409H18.9394ZM19.5076 16.9091C19.1938 16.9091 18.9394 16.6547 18.9394 16.3409H18.1818C18.1818 17.0731 18.7754 17.6667 19.5076 17.6667V16.9091ZM20.0757 16.3409C20.0757 16.6547 19.8214 16.9091 19.5076 16.9091V17.6667C20.2398 17.6667 20.8333 17.0731 20.8333 16.3409H20.0757ZM20.0757 9.90153V16.3409H20.8333V9.90153H20.0757ZM19.5076 9.33335C19.8214 9.33335 20.0757 9.58774 20.0757 9.90153H20.8333C20.8333 9.16934 20.2398 8.57578 19.5076 8.57578V9.33335ZM5.49247 8.57578C4.76028 8.57578 4.16672 9.16934 4.16672 9.90153H4.92429C4.92429 9.58773 5.17868 9.33335 5.49247 9.33335V8.57578ZM6.81823 9.90153C6.81823 9.16934 6.22467 8.57578 5.49247 8.57578V9.33335C5.80627 9.33335 6.06066 9.58774 6.06066 9.90153H6.81823ZM6.81823 16.3409V9.90153H6.06066V16.3409H6.81823ZM5.49247 17.6667C6.22467 17.6667 6.81823 17.0731 6.81823 16.3409H6.06066C6.06066 16.6547 5.80627 16.9091 5.49247 16.9091V17.6667ZM4.16672 16.3409C4.16672 17.0731 4.76028 17.6667 5.49247 17.6667V16.9091C5.17868 16.9091 4.92429 16.6547 4.92429 16.3409H4.16672ZM4.16672 9.90153V16.3409H4.92429V9.90153H4.16672ZM21.2122 11.6061C21.2122 11.3969 21.3818 11.2273 21.591 11.2273V10.4697C20.9634 10.4697 20.4546 10.9785 20.4546 11.6061H21.2122ZM21.2122 14.6364V11.6061H20.4546V14.6364H21.2122ZM21.591 15.0152C21.3818 15.0152 21.2122 14.8456 21.2122 14.6364H20.4546C20.4546 15.264 20.9634 15.7727 21.591 15.7727V15.0152ZM21.9698 14.6364C21.9698 14.8456 21.8002 15.0152 21.591 15.0152V15.7727C22.2186 15.7727 22.7273 15.264 22.7273 14.6364H21.9698ZM21.9698 11.6061V14.6364H22.7273V11.6061H21.9698ZM21.591 11.2273C21.8002 11.2273 21.9698 11.3969 21.9698 11.6061H22.7273C22.7273 10.9785 22.2186 10.4697 21.591 10.4697V11.2273ZM3.40914 10.4697C2.78154 10.4697 2.27277 10.9785 2.27277 11.6061H3.03035C3.03035 11.3969 3.19994 11.2273 3.40914 11.2273V10.4697ZM4.5455 11.6061C4.5455 10.9785 4.03673 10.4697 3.40914 10.4697V11.2273C3.61834 11.2273 3.78793 11.3969 3.78793 11.6061H4.5455ZM4.5455 14.6364V11.6061H3.78793V14.6364H4.5455ZM3.40914 15.7727C4.03673 15.7727 4.5455 15.264 4.5455 14.6364H3.78793C3.78793 14.8456 3.61834 15.0152 3.40914 15.0152V15.7727ZM2.27277 14.6364C2.27277 15.264 2.78154 15.7727 3.40914 15.7727V15.0152C3.19994 15.0152 3.03035 14.8456 3.03035 14.6364H2.27277ZM2.27277 11.6061V14.6364H3.03035V11.6061H2.27277ZM10.2273 12.6061C10.2273 12.263 10.5054 11.9849 10.8485 11.9849V11.2273C10.087 11.2273 9.46969 11.8446 9.46969 12.6061H10.2273ZM10.2273 13.6364V12.6061H9.46969V13.6364H10.2273ZM10.8485 14.2576C10.5054 14.2576 10.2273 13.9795 10.2273 13.6364H9.46969C9.46969 14.3979 10.087 15.0152 10.8485 15.0152V14.2576ZM14.1515 14.2576H10.8485V15.0152H14.1515V14.2576ZM14.7727 13.6364C14.7727 13.9795 14.4946 14.2576 14.1515 14.2576V15.0152C14.913 15.0152 15.5303 14.3979 15.5303 13.6364H14.7727ZM14.7727 12.6061V13.6364H15.5303V12.6061H14.7727ZM14.1515 11.9849C14.4946 11.9849 14.7727 12.263 14.7727 12.6061H15.5303C15.5303 11.8446 14.913 11.2273 14.1515 11.2273V11.9849ZM10.8485 11.9849H14.1515V11.2273H10.8485V11.9849Z" fill="#7C3AED" mask="url(#path-2-inside-1_106_36)"/>
</svg>
